<svg width="41" height="40" viewBox="0 0 41 40" fill="none" xmlns="http://www.w3.org/2000/svg">
<path d="M20.2501 6.66667C22.0182 6.66667 23.7139 7.36905 24.9641 8.61929C26.2144 9.86953 26.9167 11.5652 26.9167 13.3333C26.9167 15.1014 26.2144 16.7971 24.9641 18.0474C23.7139 19.2976 22.0182 20 20.2501 20C18.482 20 16.7863 19.2976 15.536 18.0474C14.2858 16.7971 13.5834 15.1014 13.5834 13.3333C13.5834 11.5652 14.2858 9.86953 15.536 8.61929C16.7863 7.36905 18.482 6.66667 20.2501 6.66667ZM20.2501 23.3333C27.6167 23.3333 33.5834 26.3167 33.5834 30V33.3333H6.91675V30C6.91675 26.3167 12.8834 23.3333 20.2501 23.3333Z" fill="#32620E"/>
</svg>
