<svg width="40" height="40" viewBox="0 0 40 40" fill="none" xmlns="http://www.w3.org/2000/svg">
<path d="M20.25 19.5161L30.5568 19.4911L27.8812 32.4111H12.6188L9.94325 19.4911L20.25 19.5161Z" fill="#CBC8CB"/>
<path d="M31.7204 15.2656V19.5278H8.94423L8.53332 15.2656H31.7204Z" fill="#CBC8CB"/>
<path d="M22.6228 17.9428L27.6645 9.75558C28.2767 8.76113 28.1198 7.5428 27.3145 7.03446C26.5091 6.52558 25.3598 6.91947 24.747 7.91335L18.6393 17.9428H22.6228Z" fill="#CBC8CB"/>
<path d="M18.5076 20.9956L13.7276 26.3167M24.1369 20.9167L15.4579 30.7022M26.9184 23.0567L20.0399 30.9445M26.1295 30.055L25.3702 30.8206M26.5239 25.8139L22.129 20.9956M25.2555 30.7511L16.1936 20.9956M20.0399 30.9445L13.4225 24.0089M15.4579 30.7022L14.2723 29.69M20.25 19.5161L30.5568 19.4911L27.8812 32.4111H12.6188L9.94325 19.4911L20.25 19.5161ZM22.6227 17.9428L27.6645 9.75558C28.2767 8.76113 28.1198 7.5428 27.3145 7.03446C26.5091 6.52558 25.3598 6.91947 24.747 7.91335L18.6393 17.9428H22.6227Z" stroke="#32620E" stroke-width="2" stroke-linecap="round" stroke-linejoin="round"/>
<path d="M21.4163 17.0683C21.1479 17.0683 20.9303 16.8479 20.9303 16.5761C20.9303 16.3042 21.1479 16.0839 21.4163 16.0839C21.6848 16.0839 21.9024 16.3042 21.9024 16.5761C21.9024 16.8479 21.6848 17.0683 21.4163 17.0683Z" fill="#32620E"/>
<path d="M20.0399 15.2372H8.53332V19.4955H31.9667V15.2372H24.7217" stroke="#32620E" stroke-width="2" stroke-linecap="round" stroke-linejoin="round"/>
</svg>
