<svg width="25" height="24" viewBox="0 0 25 24" fill="none" xmlns="http://www.w3.org/2000/svg">
<path d="M12.75 1.5C6.95156 1.5 2.25 6.20156 2.25 12C2.25 17.7984 6.95156 22.5 12.75 22.5C18.5484 22.5 23.25 17.7984 23.25 12C23.25 6.20156 18.5484 1.5 12.75 1.5ZM17.7961 9.41484C17.8031 9.525 17.8031 9.63984 17.8031 9.75234C17.8031 13.193 15.1828 17.1562 10.3945 17.1562C8.91797 17.1562 7.54922 16.7273 6.39609 15.9891C6.60703 16.0125 6.80859 16.0219 7.02422 16.0219C8.24297 16.0219 9.36328 15.6094 10.2563 14.9109C9.1125 14.8875 8.15156 14.1375 7.82344 13.1063C8.22422 13.1648 8.58516 13.1648 8.99766 13.0594C8.40873 12.9397 7.87939 12.6199 7.49957 12.1542C7.11974 11.6885 6.91286 11.1056 6.91406 10.5047V10.4719C7.25859 10.6664 7.66406 10.7859 8.08828 10.8023C7.73166 10.5647 7.4392 10.2427 7.23682 9.86491C7.03445 9.48715 6.92841 9.06528 6.92813 8.63672C6.92813 8.15156 7.05469 7.70859 7.28203 7.32422C7.93571 8.12891 8.7514 8.78705 9.67609 9.25586C10.6008 9.72466 11.6138 9.99364 12.6492 10.0453C12.2813 8.27578 13.6031 6.84375 15.1922 6.84375C15.9422 6.84375 16.6172 7.15781 17.093 7.66406C17.6812 7.55391 18.2437 7.33359 18.7453 7.03828C18.5508 7.64062 18.143 8.14922 17.6016 8.47031C18.1266 8.41406 18.6328 8.26875 19.1016 8.06484C18.7477 8.58516 18.3047 9.04688 17.7961 9.41484Z" fill="#32620E"/>
</svg>
